<?xml version="1.0" encoding="UTF-8"?>
<svg width="64px" height="64px" viewBox="0 0 64 64" version="1.1" xmlns="http://www.w3.org/2000/svg" xmlns:xlink="http://www.w3.org/1999/xlink">
    <title>facebook</title>
    <g id="facebook" stroke="none" fill="none">
        <circle id="Oval" fill="#4267B2" fill-rule="evenodd" cx="32" cy="32" r="30"></circle>
        <path d="M40.277933,10 C41.9454786,10 44.8228843,10.3201653 46,10.6403306 L46,17.778904 C45.3786977,17.7148916 44.29971,17.6829369 42.9590826,17.6829369 C38.6430267,17.6829369 36.9754811,19.2834542 36.9754811,23.4449849 L36.9754811,26.2300934 L45.5731639,26.2300934 L44.0960837,34.1049645 L36.9754811,34.1049645 L36.9757423,61.5892672 C35.3573461,61.8594145 33.6950908,62 32,62 C30.4453021,62 28.9182258,61.8817376 27.4272764,61.6537181 L27.427788,34.1049645 L22,34.1049645 L22,26.2300934 L27.427788,26.2300934 L27.427788,22.8368151 C27.427788,14.0655636 31.4823095,10 40.277933,10 Z" id="Combined-Shape" fill="#FFFFFF" fill-rule="nonzero"></path>
    </g>
</svg>