<?xml version="1.0" encoding="UTF-8"?>
<svg width="64px" height="64px" viewBox="0 0 64 64" version="1.1" xmlns="http://www.w3.org/2000/svg" xmlns:xlink="http://www.w3.org/1999/xlink">
    <title>tiktok</title>
    <g id="tiktok" stroke="none" fill="none" fill-rule="evenodd">
        <circle id="Oval" fill="#000000" cx="32" cy="32" r="30"></circle>
        <g id="Group" stroke-width="1" transform="translate(16, 14)">
            <path d="M12.3708114,14.17601 L12.3708114,12.7741935 C11.8829517,12.7074283 11.3912422,12.6726948 10.8988414,12.6702074 C4.88944587,12.6626997 0,17.5559035 0,23.5790792 C-0.000696362178,27.1401216 1.7383307,30.4769207 4.6576889,32.516129 C2.7739913,30.5003124 1.72698163,27.8438277 1.72878192,25.0848732 C1.72878192,19.150642 6.48167888,14.3138115 12.3708114,14.1772628" id="Path" fill="#25F4EE" fill-rule="nonzero"></path>
            <path d="M12.6363923,30.0657689 C15.3172567,30.0657689 17.5095524,27.9273411 17.6047606,25.2677733 L17.6135298,1.50579392 L21.950517,1.50579392 C21.8617337,1.00872994 21.8160477,0.504926476 21.8139683,0 L15.8922645,0 L15.8847481,23.7619793 C15.783918,26.43567 13.5907095,28.5531362 10.915127,28.5599749 C10.1085237,28.5617297 9.31403364,28.3637528 8.60256833,27.9837144 C9.53074828,29.2899285 11.0339837,30.0657689 12.6363923,30.0657689 M30.0557472,9.57093642 L30.0557472,8.24929533 C28.4605176,8.25315008 26.8992914,7.78835422 25.5659257,6.91262136 C26.7346147,8.26222097 28.3104399,9.19522908 30.0557472,9.57093642" id="Shape" fill="#25F4EE" fill-rule="nonzero"></path>
            <path d="M25.5684312,6.91262136 C24.2594718,5.41586865 23.5395021,3.49416829 23.54275,1.50579392 L21.9580334,1.50579392 C22.3668125,3.7275197 23.6721302,5.68300428 25.5671784,6.91262136 M10.9076106,18.5894143 C8.1588613,18.5935568 5.93197982,20.821559 5.92922038,23.5703101 C5.92922038,25.4844973 7.0191045,27.150642 8.60256833,27.9837144 C7.98792531,27.1389031 7.65720016,26.1208487 7.65800209,25.076104 C7.66075991,22.3278411 9.88687956,20.1000405 12.6351396,20.0952083 C13.1487631,20.0952083 13.6435956,20.1829001 14.1083623,20.3269652 L14.1083623,14.272471 C13.6200883,14.2056512 13.1279585,14.1709176 12.6351396,14.1684936 C12.5474478,14.1684936 12.4672724,14.17601 12.3795805,14.17601 L12.3795805,18.8211713 C11.9032164,18.6709901 11.4070755,18.5928743 10.9076106,18.5894143" id="Shape" fill="#FE2C55" fill-rule="nonzero"></path>
            <path d="M30.0557472,9.57093642 L30.0557472,14.17601 C27.0984115,14.1790212 24.2150617,13.251651 21.8139683,11.5252114 L21.8139683,23.5790792 C21.8139683,29.592233 16.9245226,34.4942061 10.9076106,34.4942061 C8.66986782,34.4945547 6.48663617,33.8037085 4.65643616,32.516129 C6.71685495,34.7356885 9.60790007,35.9978544 12.6363923,36 C18.6457879,36 23.54275,31.1067961 23.54275,25.0836204 L23.54275,13.0310053 C25.9438434,14.757445 28.8271932,15.6848151 31.7845289,15.6818039 L31.7845289,9.756342 C31.1848838,9.75467168 30.6086232,9.69286982 30.0557472,9.57093642" id="Path" fill="#FE2C55" fill-rule="nonzero"></path>
            <path d="M21.8139683,23.5790792 L21.8139683,11.5252114 C24.215409,13.2519013 27.0992364,14.1792841 30.0569999,14.17601 L30.0569999,9.57093642 C28.3116927,9.19522908 26.7358675,8.26222097 25.5671784,6.91262136 C23.6735123,5.68020387 22.3666817,3.72652154 21.950517,1.50579392 L17.6122771,1.50579392 L17.6047606,25.2677733 C17.5039305,27.9414639 15.3107221,30.0589301 12.6351396,30.0657689 C11.0338936,30.0612973 9.53171801,29.2899476 8.59505188,27.9912308 C6.95478875,27.129321 5.92590834,25.4307523 5.92170394,23.5778265 C5.92515167,20.8300528 8.15106979,18.6030141 10.8988414,18.5981835 C11.4112122,18.5981835 11.9072974,18.6858754 12.3720641,18.8299405 L12.3720641,14.1847792 C6.48167888,14.3138115 1.72878192,19.150642 1.72878192,25.0848732 C1.72878192,27.9536486 2.84121537,30.5631068 4.6576889,32.5173818 C6.48739187,33.8051598 8.67016001,34.4967116 10.9076106,34.4967116 C16.9170062,34.4967116 21.8139683,29.5947385 21.8139683,23.5790792" id="Path" fill="#FFFFFF" fill-rule="nonzero"></path>
        </g>
    </g>
</svg>