<svg width="97" height="60" viewBox="0 0 97 60" fill="none" xmlns="http://www.w3.org/2000/svg">
<path d="M96.0011 4.89721C95.9093 4.622 95.4873 4.25505 95.1204 4.16331C94.7534 4.07157 91.0289 4.2367 90.2399 4.21835C89.451 4.21835 88.0749 3.75966 87.5612 3.37436C87.0475 2.98906 86.02 2.29186 84.8091 2.29186C83.5981 2.29186 81.1395 2.49368 80.4423 2.58542C79.7451 2.67715 79.0663 2.47533 78.5892 2.3469C78.1122 2.23681 77.5618 2.07169 77.2682 1.86986C76.9747 1.66804 76.4059 1.68639 76.1674 1.9616C75.9288 2.23681 75.5802 2.43864 75.1216 2.38359C74.6629 2.3469 74.039 1.83317 73.5253 1.41117C73.0116 0.989181 72.0025 0.493796 71.819 0.622229C71.6355 0.732314 71.3236 1.24605 71.1768 1.88821C71.0301 2.53038 71.2686 3.74131 71.3786 3.86975C71.4887 3.99818 71.4704 4.29174 71.2502 4.45687C71.03 4.622 70.3879 5.3559 70.5714 5.64946C70.7548 5.94302 71.0851 6.29162 71.6906 6.62188C72.296 6.97048 73.2501 7.52091 73.3418 7.70439C73.4336 7.90621 72.8832 8.47498 71.764 9.66757C70.6448 10.8785 69.2503 12.3463 69.0118 12.5848C68.7733 12.8234 67.966 12.5665 67.0486 12.3463C66.1312 12.1261 64.2781 12.0528 62.0581 11.961C59.838 11.8693 56.5355 11.0803 51.8018 9.96113C47.0681 8.84193 44.5362 8.47498 39.7108 8.87863C34.8854 9.26393 30.7388 11.3372 30.7388 11.3372C30.7388 11.3372 29.1793 12.2546 28.1885 13.0435C27.1794 13.8141 25.6015 15.4837 25.1978 15.9608C24.8125 16.4378 23.8952 16.8048 23.3998 16.8048C22.9044 16.8048 20.2257 16.9516 17.5653 17.6671C14.9049 18.3827 12.4096 19.4468 10.7583 20.1624C9.10704 20.8963 4.8871 21.5384 3.10739 21.9237C1.32768 22.309 -0.121781 23.7768 0.135085 24.6025C0.391951 25.4281 1.30933 26.1437 2.33679 25.6483C3.36425 25.1713 4.75867 25.0245 7.38237 24.7126C10.0244 24.4007 10.6482 24.2722 12.1344 23.8319C13.6205 23.3915 14.593 22.8595 15.8773 22.0705C17.1616 21.2816 18.1707 21.1164 20.2807 21.2082C22.409 21.2999 23.1246 22.4558 23.4732 23.3732C23.8218 24.2906 23.6383 24.7676 24.5557 26.5473C25.4731 28.327 27.2711 30.1434 30.6104 32.5286C33.9313 34.9322 37.6558 38.6751 37.6558 38.6751C37.6558 38.6751 37.7292 39.0053 37.6925 39.7576C37.6558 40.5098 37.3439 42.0143 36.9403 42.7299C36.5366 43.4638 36.5183 44.8215 36.8669 45.3536C37.2155 45.8857 40.0227 47.3168 40.0227 47.3168C40.0227 47.3168 39.8025 47.3168 39.3989 47.2801C38.9769 47.2434 38.4264 47.2801 38.2797 47.5002C38.1329 47.7204 37.3623 48.2708 37.0871 48.6561C36.8302 49.0414 36.7935 49.4818 36.9586 50.1239C37.1238 50.7477 37.1788 51.3532 37.7109 51.2248C38.243 51.0964 38.9218 50.601 39.6374 50.5092C40.3529 50.4175 41.252 50.5092 41.9492 50.4725C42.6464 50.4542 42.7748 50.3074 43.1601 50.6377C43.5454 50.9679 45.8572 53.7934 46.8847 54.8576C47.9121 55.9034 49.1231 57.4446 49.6001 58.1051C50.0771 58.7473 50.8477 59.1142 51.5082 59.0775C52.1504 59.0408 52.6274 59.5546 53.3613 59.4628C54.0769 59.3711 54.4805 59.628 54.8108 59.5179C55.1594 59.4078 56.4988 58.417 56.6456 58.0684C56.7923 57.7198 57.0309 56.9125 56.7006 56.6373C56.3703 56.3621 55.6731 56.3805 55.2328 56.3071C54.7925 56.2337 54.3705 55.9952 53.8567 55.9218C53.343 55.8667 52.6641 55.5915 51.9302 55.2429C51.178 54.8943 49.435 53.4081 49.435 53.4081C49.435 53.4081 49.8753 53.4632 50.3707 53.4265C50.8661 53.3898 51.3064 53.4999 51.7835 53.4265C52.2605 53.3348 52.7559 52.9862 53.1412 52.5458C53.5265 52.1055 53.82 51.3532 53.5999 50.9863C53.3797 50.6377 52.3339 50.3625 51.9853 50.1606C51.6367 49.9405 50.7193 49.7019 50.701 49.4267C50.6826 49.1332 52.0403 46.8397 52.444 45.959C52.8476 45.0784 54.4255 42.3813 55.1227 41.4272C55.8016 40.4731 56.9391 39.1154 57.196 39.1704C57.4345 39.2255 63.2874 44.8949 63.7461 45.3536C64.2048 45.8123 64.5534 46.2526 64.2965 46.6562C64.0396 47.0415 63.8195 47.2984 63.6176 47.8672C63.4158 48.436 62.4434 49.1332 61.8012 49.3717C61.1407 49.6102 60.8105 49.5919 60.4435 49.7753C60.0582 49.9772 59.4894 50.5643 59.0124 50.8211C58.5537 51.078 57.6914 51.8119 57.5813 52.3807C57.4529 52.9495 57.7831 54.3072 58.1501 54.5457C58.4987 54.7842 59.0491 54.7659 59.361 54.6191C59.6729 54.4723 60.5536 53.6467 61.049 53.3348C61.5444 53.0228 62.6636 52.4174 63.1039 51.977C63.5442 51.555 65.1588 50.3625 66.223 49.6102C67.2871 48.858 68.021 48.1791 68.4614 47.2067C68.8834 46.2343 68.6816 45.4453 67.9844 44.2344C67.2871 43.0234 63.7461 38.4549 63.3057 37.6843C62.8654 36.9137 62.5351 35.9596 62.7369 35.7578C62.9571 35.556 66.223 34.8771 67.544 34.3267C68.8834 33.7763 70.4613 32.8038 71.2135 31.6479C71.9658 30.5104 73.0483 28.1436 74.0207 26.4189C74.9931 24.6759 77.9104 23.0613 78.3691 22.3641C78.8278 21.6852 80.1488 19.7587 81.1029 18.6212C82.0753 17.4836 83.3229 16.603 83.7816 16.3461C84.2403 16.0892 85.5246 15.869 86.3319 15.7957C87.1209 15.7406 88.662 15.814 89.2308 16.0892C89.7996 16.3461 90.7353 16.6396 91.2307 16.5663C91.7261 16.4929 92.7169 16.2177 92.882 15.8324C93.0471 15.4471 93.1205 14.7498 92.882 14.548C92.6435 14.3462 91.7077 14.0343 91.2307 13.7774C90.7537 13.5389 89.0657 13.3554 88.5153 13.282C87.9648 13.2087 86.5154 12.7867 86.0934 12.5665C85.6714 12.328 85.4512 11.7042 85.5246 11.3922C85.598 11.0803 86.2769 10.6216 87.0842 10.163C87.8914 9.70427 90.0932 9.28228 91.0656 9.11715C92.0564 8.95202 93.7994 8.40159 94.2764 8.16307C94.7534 7.92456 95.5057 7.35578 95.7259 6.89709C95.946 6.4384 96.1479 5.11738 96.0561 4.86052L96.0011 4.89721ZM50.9028 38.8218C50.5358 39.7025 49.5817 42.473 49.0497 43.7206C48.4992 44.9499 47.9672 45.9957 47.6002 46.4361C47.2149 46.8764 46.4443 46.9131 46.1691 46.8764C45.9122 46.8397 45.3802 44.9316 45.1967 43.9775C45.0132 43.0051 44.7747 39.941 44.6829 39.3172C44.5912 38.6934 44.0408 35.189 43.9124 34.1616C43.8023 33.1341 43.9857 31.8681 44.1325 31.0608C44.261 30.2719 44.5729 29.2628 44.5729 29.2628C44.5729 29.2628 46.1141 31.6113 47.5819 32.3818C49.0497 33.1524 50.5909 33.7029 51.1963 33.9414C51.8202 34.1799 52.3522 34.4184 52.3339 34.767C52.3155 35.0973 51.2697 37.9595 50.9028 38.8402V38.8218Z" fill="#A3CF62"/>
</svg>
