<svg width="81" height="67" viewBox="0 0 81 67" fill="none" xmlns="http://www.w3.org/2000/svg">
<path d="M80.1035 61.7385C79.9934 61.5184 79.8833 61.2982 79.6632 60.9312C79.4247 60.5643 78.6908 59.9221 77.9935 59.4818C77.3147 59.0414 76.9661 59.1882 76.1588 58.9681C75.3515 58.7479 73.9938 57.7204 73.2966 57.1333C72.5994 56.5462 71.4801 55.1334 70.8563 53.6473C70.2508 52.1611 69.1867 48.6567 68.7464 47.5375C68.306 46.4183 67.3336 44.8404 67.2235 44.0331C67.1134 43.2075 67.6088 41.7764 67.9574 40.9691C68.306 40.1618 70.2142 36.9143 70.5811 35.63C70.9481 34.3456 71.4435 31.5385 71.4802 30.0707C71.5169 28.6028 71.6269 21.9243 71.5535 21.0804C71.4618 20.2364 71.5536 19.2823 71.9205 19.2273C72.3058 19.1722 74.1038 19.4107 75.0579 19.3924C76.012 19.3557 76.6725 19.0438 77.0578 18.8236C77.4431 18.6034 78.8008 17.3191 78.9476 17.0072C79.0944 16.6953 79.0393 16.2916 79.2412 15.8513C79.443 15.411 79.4797 14.989 79.2412 14.5486C79.0026 14.1083 77.9569 13.2826 77.3147 13.1542C76.6909 13.0258 75.2598 12.402 74.9662 12.0167C74.691 11.6314 74.5809 10.7507 74.3974 9.90669C74.214 9.06271 73.37 8.18202 72.8929 7.81507C72.4159 7.44812 71.2783 6.49405 70.9481 5.92527C70.6362 5.37485 70.2325 4.87946 70.0307 4.40243C69.8289 3.92539 69.9206 3.20983 69.8839 3.06305C69.8288 2.91627 69.7004 2.80619 69.3335 2.95297C68.9665 3.0814 68.4895 3.65018 68.2326 3.94374C67.9758 4.2373 67.6639 4.27399 67.4621 4.2006C67.2602 4.10887 66.5263 3.06305 66.0493 2.65941C65.5722 2.25576 64.765 1.68699 64.6916 1.24665C64.6182 0.806306 64.343 0.329269 64.0127 0.494397C63.6825 0.659525 63.2604 0.971433 62.8935 2.29246C62.5265 3.63183 62.6917 5.66841 62.6366 6.31057C62.5816 6.95274 62.233 7.2096 61.4991 7.92516C60.7652 8.65906 58.9854 10.9892 57.9029 12.7322C56.8204 14.4752 55.7379 17.2457 55.4444 18.3466C55.1508 19.4474 54.5087 21.851 54.2151 22.3463C53.9032 22.8234 51.5364 24.1811 50.7841 24.3646C50.0319 24.548 46.6926 24.8416 44.234 24.9884C41.7755 25.1352 39.4636 25.5939 34.4548 25.9975C29.4459 26.4011 26.8405 26.9516 26.8405 26.9516C26.8405 26.9516 24.8223 27.0066 22.6023 27.2268C20.3822 27.447 17.9787 28.6029 15.1898 29.5202C12.401 30.4376 8.51131 31.1715 6.07109 31.1899C3.63086 31.2082 1.57595 29.8688 1.09892 30.3826C0.603533 30.8963 0.163189 32.0705 0.695268 33.5567C1.2457 35.0428 3.13548 37.0611 5.15371 37.5748C7.17194 38.0885 10.7497 38.0885 13.4835 37.2446C16.2357 36.3822 20.4923 33.8319 20.4923 33.8319C20.4923 33.8319 20.2905 34.0888 19.9052 35.4648C19.5015 36.8409 19.6667 37.6298 19.6483 39.0059C19.6483 40.382 18.8777 42.3635 17.6851 43.813C16.4742 45.2808 13.2817 47.0605 11.1717 47.9045C9.06174 48.7485 7.53891 48.6751 6.54814 49.1154C5.53903 49.5741 5.77753 50.8951 6.12613 51.9776C6.45639 53.0601 6.97012 58.069 7.04351 58.9864C7.1169 59.9038 7.24536 63.3898 7.35544 64.1604C7.46553 64.931 8.14438 65.6649 8.78655 66.0135C9.42871 66.3621 10.3094 66.4722 10.7314 66.4355C11.1534 66.3988 12.1075 66.2704 12.1075 66.2704C12.1075 66.2704 12.8597 66.2337 13.2267 66.1603C13.5936 66.1053 13.8505 66.3254 14.1624 66.2337C14.4743 66.142 14.5844 65.7383 14.933 65.5915C15.2816 65.4447 15.5568 65.6833 15.6485 65.4998C15.7586 65.3163 15.6119 65.2246 15.3366 64.7842C15.0614 64.3439 13.9422 63.2614 13.2083 62.7293C12.4744 62.1972 11.4102 62.2339 11.2818 61.7018C11.1534 61.1881 11.0984 58.3442 11.1534 56.803C11.2084 55.2618 11.3736 54.0142 12.3643 53.3904C13.3551 52.7666 17.9053 51.7942 17.9053 51.7942C17.9053 51.7942 17.8136 52.3446 18.0337 52.6748C18.2539 53.0051 19.263 53.5372 20.2538 54.4546C21.2262 55.3719 23.9416 59.0047 24.6205 59.7753C25.2994 60.5459 26.7855 62.3073 27.2075 62.6376C27.6295 62.9678 29.189 62.8394 29.611 62.7843C30.033 62.7293 30.6385 62.8944 31.2439 62.8944C31.8494 62.8944 31.8861 62.7293 32.143 62.5642C32.3999 62.399 32.7301 62.4174 32.8035 62.289C32.8769 62.1422 32.8402 61.9587 32.6934 61.6651C32.5466 61.3716 31.6476 60.5459 31.2623 60.179C30.8954 59.7937 30.1064 59.1882 29.4276 59.0965C28.7303 59.0231 28.4735 58.7295 27.6112 57.8122C26.7488 56.8948 25.3728 55.06 25.0241 54.3078C24.6939 53.5555 24.3269 52.9317 24.8407 52.4914C25.3544 52.051 29.4459 49.9044 31.4458 48.7485C33.4457 47.5926 34.9502 45.7762 35.1153 45.3725C35.2804 44.9689 36.051 44.5102 36.4914 44.0148C36.9317 43.5378 36.8767 43.0607 37.1335 42.9139C37.4088 42.7672 39.904 42.9323 43.0231 43.8313C46.1422 44.7304 52.8758 45.3175 53.1877 45.4276C53.4996 45.5376 53.3895 46.0147 53.4995 46.7486C53.6096 47.4825 54.7288 49.3539 55.5178 50.2897C56.3067 51.2254 59.7744 55.7205 60.967 57.3168C62.1596 58.913 62.8385 61.1331 63.4256 61.7202C64.0127 62.3073 65.0402 62.6926 65.8841 63.0779C66.7465 63.4449 69.4619 65.8117 69.9573 66.1236C70.4527 66.4355 71.3884 66.4906 71.7737 66.4355C72.159 66.3805 72.6177 66.3071 73.003 66.4355C73.3883 66.5639 74.3791 66.3438 74.5992 66.3254C74.8011 66.2887 75.1864 66.4539 75.4799 66.4355C75.7735 66.4355 75.957 66.0135 76.2872 65.9401C76.6175 65.8851 76.5807 65.9768 76.8743 65.9585C77.1679 65.9401 77.0762 65.8117 77.0395 65.5365C77.0028 65.2429 76.9294 64.8026 76.6358 64.454C76.3423 64.087 74.1406 62.6376 73.7736 62.4724C73.4067 62.3073 71.5169 62.0504 70.783 61.6835C70.0491 61.3165 68.618 60.3992 67.9758 59.8304C67.3336 59.2616 66.563 58.2341 66.086 57.2434C65.609 56.2526 64.1962 53.0234 63.8843 52.2712C63.5724 51.5189 62.2697 49.0971 61.9394 48.3448C61.6092 47.5926 60.967 46.1615 61.2973 46.3633C61.6275 46.5651 63.3338 49.5374 64.0494 50.5465C64.7649 51.5373 65.8841 53.0418 66.7832 54.4546C67.6822 55.8673 68.4895 57.5736 68.7097 57.9406C68.9299 58.3075 69.3335 58.6378 70.0857 59.0048C70.838 59.3717 73.3149 61.6835 73.9754 62.0688C74.6359 62.4541 75.4799 62.6009 76.012 62.6009C76.5258 62.6009 77.4248 62.821 77.8651 62.711C78.3238 62.6009 78.5073 62.711 78.8008 62.6743C79.0944 62.6559 79.1861 62.5091 79.5714 62.399C79.9567 62.289 80.3604 62.4357 80.342 62.344C80.342 62.2523 80.1952 61.9587 80.0851 61.7569L80.1035 61.7385ZM51.2795 36.0887H46.3073V41.0425H42.3993V36.0887H37.4271V32.2907H42.3993V27.3369H46.3073V32.2907H51.2795V36.0887Z" fill="#A3CF62"/>
</svg>
