<svg width="84" height="94" viewBox="0 0 84 94" fill="none" xmlns="http://www.w3.org/2000/svg">
<path d="M41.7718 35.4778C29.1303 41.2573 23.1857 56.3023 21.6445 60.7791C24.2682 58.5224 26.9286 56.4124 29.7725 54.3942C35.3134 50.5412 41.3682 46.7065 48.2485 45.6791C53.3124 44.9819 59.5689 44.8901 64.6512 44.2296C65.7154 44.0462 66.7612 43.7893 67.385 43.2022C67.9354 42.7068 68.7611 43.5324 68.229 44.0828C66.3208 45.8626 63.954 45.8442 61.6422 46.3212L55.1288 47.312C50.9272 48.0276 46.744 48.523 42.946 50.6513C39.2215 52.5594 35.7905 55.1831 32.4879 57.9169C30.2495 59.7884 28.0662 61.8066 25.9929 63.8799C32.4879 65.9898 44.5056 68.6502 54.7619 63.9532C69.6968 57.128 75.2928 37.3676 75.2928 37.3676C75.2928 37.3676 56.6884 28.6526 41.7535 35.4778H41.7718Z" fill="#A3CF62"/>
<path d="M83.2949 52.2427C83.0747 60.0404 80.6345 67.673 76.1944 74.0763C62.3236 93.9284 33.6097 96.5154 16.7483 79.0118C-3.63583 57.3617 7.75801 23.2352 34.7289 17.2172L35.5729 25.7855L55.8836 11.2176L33.1143 0.90625L33.94 9.19935C32.8574 9.45621 31.7933 9.74977 30.7291 10.08C-0.204847 20.2079 -9.85566 59.3249 13.5558 82.2043C40.3433 107.506 84.1205 89.3782 83.9921 52.2427C83.9921 51.784 83.2766 51.784 83.2949 52.2427Z" fill="#A3CF62"/>
</svg>
