<?xml version="1.0" encoding="UTF-8"?>
<svg width="56px" height="56px" viewBox="0 0 56 56" version="1.1" xmlns="http://www.w3.org/2000/svg" xmlns:xlink="http://www.w3.org/1999/xlink">
    <title>hearts</title>
    <g id="hearts" stroke="none" fill="none" fill-rule="nonzero">
        <path d="M15.69747,37.2761 C16.69772,36.4203 17.86876,36.0535 19.13738,36.2246 C19.38135,36.2735 19.62531,36.3225 19.86928,36.3958 C21.1379,36.8115 22.1138,37.8385 22.5041,39.1345 C22.6993,38.9634 22.9188,38.8411 23.1384,38.7188 C24.0899,38.2298 25.2121,38.132 26.2612,38.4743 C27.1638,38.7678 27.9445,39.3546 28.4325,40.1371 L28.4081,40.1371 C29.262,41.4576 29.4571,42.9003 28.9936,44.4408 C28.774,45.15 28.3105,45.6635 27.9201,46.0547 C26.9931,46.9595 25.9196,47.5708 24.9926,48.0599 C23.358,48.9158 21.4795,49.6738 19.25936,50.3829 L19.0433067,50.4040248 C18.9812424,50.406372 18.912932,50.40246 18.84462,50.3829 C18.766556,50.36338 18.6728696,50.3125 18.6010443,50.2303624 L18.55186,50.1629 C17.1105862,48.2216692 16.0434908,46.5096456 15.2162508,44.8153319 L15.01436,44.392 C14.52643,43.4138 14.20927,42.4846 14.0385,41.6043 C13.69695,39.9415 14.25807,38.5232 15.69747,37.2761 Z M31.8234,5.903838 C33.8484,5.1947 36.044,5.194696 37.9958,5.928286 L37.9714,5.952745 C41.3137,7.1754 43.6558,9.52288 44.9244,12.92185 C45.4855,14.48685 45.3635,16.0763 45.1684,17.2989 C44.7292,20.1844 43.6314,22.7764 42.6311,24.9283 C40.8258,28.743 38.4837,32.7044 35.4341,37.0081 L35.3266031,37.1693188 C35.2008188,37.3412375 35.0133,37.5338 34.7022,37.6439 C34.4339,37.7172 34.1411,37.7417 33.8484,37.6439 C28.164,35.9811 23.6262,34.196 19.57636,32.093 C17.38067,30.9437 15.55093,29.7211 14.01395,28.3762 C11.13515,25.833 10.183686,22.5319 11.08636,18.2771 C11.72067,15.2938 13.33084,13.06857 15.86808,11.62585 C16.35602,11.35686 16.89274,11.11234 17.40507,10.94116 C20.2595,9.93859 23.431,10.4521 25.8951,12.26162 C26.0658,11.6992 26.261,11.16123 26.505,10.64772 C27.5296,8.44695 29.4814,6.73524 31.8234,5.903838 Z" id="Shape" fill="#000000"></path>
    </g>
</svg>