<?xml version="1.0" encoding="UTF-8"?>
<svg width="42px" height="42px" viewBox="0 0 42 42" version="1.1" xmlns="http://www.w3.org/2000/svg" xmlns:xlink="http://www.w3.org/1999/xlink">
    <title>Shape</title>
    <g id="Page-1" stroke="none" stroke-width="1" fill="none" fill-rule="evenodd">
        <path d="M21,0 C32.5979797,0 42,9.40202025 42,21 C42,32.5979797 32.5979797,42 21,42 C9.40202025,42 0,32.5979797 0,21 C0,9.40202025 9.40202025,0 21,0 Z M32.3646866,11.5378969 C31.5571853,10.784229 30.2916075,10.8278696 29.5379396,11.6353709 L16.8270501,25.2530074 L12.2804189,21.4635649 C11.4318652,20.7564367 10.1707358,20.8710848 9.46360759,21.7196386 C8.75647943,22.5681924 8.87112756,23.8293218 9.71968135,24.53645 L15.7196813,29.53645 C16.5347125,30.2156426 17.7382669,30.1402444 18.4621607,29.3646439 L32.4621607,14.3646439 C33.2158286,13.5571426 33.172188,12.2915648 32.3646866,11.5378969 Z" id="Shape" fill="#FFFFFF"></path>
    </g>
</svg>