<svg xmlns="http://www.w3.org/2000/svg" fill="none" viewBox="0 0 128 128">
    <path xmlns="http://www.w3.org/2000/svg" fill="#000" d="M48.299 85.282c-2.28 0-3.446 1.158-3.446 3.423v33.372c0 3.949-1.99 5.923-5.966 5.923H19.966c-3.98 0-5.966-1.974-5.966-5.926V7.61C14 2.555 16.567 0 21.661 0h54.775c8.83 0 16.74 2.457 23.725 7.418l2.375 1.688C109.62 14.11 113.16 20.9 113.16 29.522v22.105c0 8.572-3.006 15.986-9.07 22.199l-2.182 2.264c-6.064 6.213-13.391 9.341-21.979 9.341h-.145l-31.39-.145h-.095m30.32-42.137c0-4.623-2.183-7.366-6.547-8.28L51.349 30.77a5.479 5.479 0 0 0-1.162-.146c-1.41 0-2.088.864-2.088 2.65v.145l.435 23.933c.051 2.214.825 3.32 2.379 3.32.388 0 .875-.093 1.409-.235l19.695-5.443c4.415-1.205 6.648-4.047 6.648-8.525V43.05l-.05.094"/>
    <style>
        path { fill: #000; }
        @media (prefers-color-scheme: dark) {
            path { fill: #FFF; }
        }
    </style>
</svg>
