<svg width="63" height="82" viewBox="0 0 63 82" fill="none" xmlns="http://www.w3.org/2000/svg">
<path d="M49.295 1.3717C45.7902 0.0553752 41.8474 0.0553827 38.2111 1.32783C34.0054 2.81967 30.5006 5.89109 28.6606 9.84007C28.2225 10.7615 27.872 11.7268 27.5654 12.736C23.1406 9.48905 17.4453 8.56763 12.3195 10.3666C11.3995 10.6738 10.4357 11.1125 9.55952 11.5952C5.0033 14.184 2.11185 18.1768 0.972795 23.5299C-0.648168 31.1646 1.06042 37.088 6.22997 41.6513C8.98999 44.0646 12.2757 46.2584 16.2186 48.3207C23.491 52.0942 31.6397 55.2972 41.8474 58.2809C42.3731 58.4564 42.8988 58.4125 43.3807 58.2809C44.1255 58.0176 44.4759 57.4911 44.695 57.1401C50.1712 49.4176 54.377 42.3095 57.6189 35.4646C59.4151 31.6033 61.3865 26.9523 62.1751 21.7748C62.5256 19.5809 62.7446 16.7288 61.737 13.9207C59.4589 7.8217 55.2532 3.60947 49.2512 1.41559L49.295 1.3717Z" fill="#3F307B"/>
<path d="M32.1198 62.7581C31.2436 61.354 29.8417 60.301 28.2207 59.7744C26.3369 59.1602 24.3217 59.3357 22.6131 60.2132C22.2188 60.4326 21.8245 60.652 21.474 60.9591C20.7731 58.6336 19.0207 56.7908 16.7426 56.0449C16.3045 55.9132 15.8664 55.8255 15.4283 55.7377C13.1502 55.4306 11.0473 56.0887 9.25108 57.6245C6.6663 59.8622 5.65867 62.4071 6.27201 65.3908C6.57868 66.9704 7.14821 68.6377 8.0244 70.3928C9.55775 73.6836 11.573 76.9744 14.3768 80.7479C14.5083 80.9673 14.7273 81.0989 14.9025 81.1428C15.2092 81.2306 15.5159 81.1428 15.6473 81.1428C19.634 79.8704 23.0074 78.5102 25.9426 76.9745C27.6074 76.0969 29.535 74.9999 31.1998 73.3765C31.9008 72.6744 32.7331 71.753 33.1274 70.4806C33.9598 67.7163 33.6093 65.1275 32.076 62.7581H32.1198Z" fill="#3F307B"/>
</svg>
