<svg width="356" height="60" viewBox="0 0 356 60" fill="none" xmlns="http://www.w3.org/2000/svg">
<path d="M355.871 0H0.871094V60H355.871V0Z" fill="#231F20"/>
<path d="M30.3526 35.0933C29.7716 35.0933 29.475 35.3878 29.475 35.9645V44.4676C29.475 45.4737 28.9682 45.9768 27.9546 45.9768H23.1337C22.1201 45.9768 21.6133 45.4737 21.6133 44.4676V15.3019C21.6133 14.0136 22.2684 13.3633 23.5663 13.3633H37.5221C39.7718 13.3633 41.7867 13.989 43.5667 15.2529L44.1724 15.6823C45.9771 16.9584 46.8795 18.6884 46.8795 20.8848V26.5167C46.8795 28.7007 46.1131 30.5903 44.5679 32.1731L44.0117 32.7498C42.4666 34.3326 40.6 35.1301 38.4121 35.1301H38.375L30.3773 35.0933H30.3526ZM38.0783 24.3571C38.0783 23.1792 37.5221 22.4798 36.4096 22.2467L31.1314 21.2038C31.0201 21.1792 30.9212 21.167 30.8347 21.167C30.4762 21.167 30.3032 21.3878 30.3032 21.8418V21.8786L30.4144 27.9768C30.4268 28.5412 30.6246 28.8234 31.0201 28.8234C31.119 28.8234 31.2426 28.7989 31.3786 28.7621L36.3972 27.3755C37.5221 27.0688 38.0907 26.3449 38.0907 25.2038V24.3326L38.0783 24.3571Z" fill="white"/>
<path d="M64.7647 38.9569C65.7289 38.9569 66.2109 39.4354 66.2109 40.3925V44.552C66.2109 45.5091 65.7289 45.9876 64.7647 45.9876H51.6495C50.5741 45.9876 50.0302 45.4477 50.0055 44.3557L49.4492 15.3741V15.3127C49.4492 14.2575 50.0055 13.7422 51.0933 13.7422H64.7647C65.7289 13.7422 66.2109 14.2207 66.2109 15.1778V22.2698C66.2109 23.2268 65.5311 23.7054 64.159 23.7054H58.7448C57.7806 23.7054 57.2986 24.1839 57.2986 25.141V26.7115C57.2986 27.8035 57.8548 28.3434 58.9426 28.3434H63.7511C64.3073 28.3434 64.5916 28.6134 64.5916 29.1532V32.5888C64.5916 33.0551 64.3568 33.3373 63.8994 33.4109L58.1144 34.3557C57.3851 34.4784 57.0142 34.9078 57.0142 35.644V37.7299C57.0142 38.552 57.4222 38.9569 58.2627 38.9569H64.7771H64.7647Z" fill="white"/>
<path d="M83.3701 28.9342H89.9092C90.7374 28.9342 91.1577 29.3268 91.1577 30.0998V30.1612L90.7745 43.7317C90.7374 45.2164 89.971 45.9649 88.4753 45.9771L76.8187 46.063H76.7569C74.6926 46.063 72.9126 45.3268 71.4169 43.8422L71.1326 43.56C69.674 42.1244 68.957 40.3452 68.957 38.2471V20.198C68.957 18.1366 69.538 16.4434 70.7123 15.106C71.9361 13.7072 73.5677 13.0078 75.6197 13.0078H75.904L86.584 13.3514C87.6595 13.3882 88.191 13.9403 88.191 14.9833V21.9894C88.191 23.0814 87.6347 23.6213 86.5469 23.6213L79.2168 23.6581C78.1166 23.6581 77.5728 24.198 77.5728 25.29L77.6098 36.9587C77.6098 37.7808 78.0178 38.1857 78.8583 38.1857H81.3676C81.9239 38.1857 82.2082 37.9158 82.2082 37.3636L82.1711 30.1489C82.1711 29.3268 82.5914 28.9219 83.4196 28.9219L83.3701 28.9342Z" fill="white"/>
<path d="M108.339 28.9342H114.878C115.706 28.9342 116.126 29.3268 116.126 30.0998V30.1612L115.743 43.7317C115.706 45.2164 114.94 45.9649 113.444 45.9771L101.787 46.063H101.726C99.6614 46.063 97.8813 45.3268 96.3856 43.8422L96.1013 43.56C94.6427 42.1244 93.9258 40.3452 93.9258 38.2471V20.198C93.9258 18.1366 94.5068 16.4434 95.6811 15.106C96.9048 13.7072 98.5365 13.0078 100.588 13.0078H100.873L111.553 13.3514C112.628 13.3882 113.16 13.9403 113.16 14.9833V21.9894C113.16 23.0814 112.603 23.6213 111.516 23.6213L104.186 23.6581C103.085 23.6581 102.542 24.198 102.542 25.29L102.579 36.9587C102.579 37.7808 102.987 38.1857 103.827 38.1857H106.336C106.893 38.1857 107.177 37.9158 107.177 37.3636L107.14 30.1489C107.14 29.3268 107.56 28.9219 108.388 28.9219L108.339 28.9342Z" fill="white"/>
<path d="M124.114 44.4676L123.582 32.124L115.758 15.1792C115.51 14.6516 115.387 14.2222 115.387 13.8909C115.387 13.2283 115.832 12.897 116.709 12.897H122.754C123.693 12.897 124.386 13.2896 124.855 14.0626L127.958 19.2896L133.261 10.7252C133.422 10.4553 133.657 10.3203 133.978 10.3203H139.392C139.948 10.3203 140.233 10.6025 140.233 11.1424C140.233 11.2528 140.22 11.3633 140.196 11.4614L132.433 30.5289L131.209 44.6884C131.147 45.535 130.653 45.9645 129.738 45.9645H125.782C124.707 45.9645 124.151 45.4614 124.114 44.4553V44.4676Z" fill="white"/>
<path d="M142.06 16.3813C142.06 16.3813 142.11 16.2954 142.11 16.2463C142.11 16.0377 141.999 15.9395 141.788 15.9395H141.306C141.096 15.9395 140.997 15.8414 140.997 15.6328V12.8966C140.997 12.688 141.096 12.5898 141.306 12.5898H145.126C145.324 12.5898 145.435 12.688 145.435 12.8843L145.509 15.8414C145.509 15.915 145.484 15.9763 145.435 16.0377L142.753 19.1052C142.691 19.1788 142.617 19.2156 142.518 19.2156H141.207C140.997 19.2156 140.898 19.1175 140.898 18.9211C140.898 18.8721 140.898 18.823 140.923 18.7862L142.06 16.4058V16.3813Z" fill="white"/>
<path d="M157.401 23.2376C156.573 23.2376 156.153 23.5566 156.153 24.2069C156.153 24.8572 156.61 25.3235 157.537 25.5444L161.431 26.4769C163.471 26.9554 164.942 27.7284 165.856 28.7836C166.511 29.5321 166.833 30.9554 166.833 33.029V39.4339C166.833 41.5075 166.029 43.1395 164.435 44.3419C163.001 45.4217 161.184 45.9615 159.021 45.9615H147.895C146.931 45.9615 146.449 45.483 146.449 44.526V39.029C146.449 38.072 146.931 37.5934 147.895 37.5934H156.981C157.945 37.5934 158.427 37.0536 158.427 35.9615C158.427 35.0658 158.056 34.4769 157.327 34.2192L152.358 32.526C148.415 31.1763 146.449 28.526 146.449 24.5505V20.7591C146.449 18.5996 147.067 16.9431 148.291 15.7775C149.515 14.6118 151.221 14.0352 153.396 14.0352H166.066C167.031 14.0352 167.513 14.5137 167.513 15.4707V21.8266C167.513 22.7836 167.031 23.2621 166.066 23.2621H157.414L157.401 23.2376Z" fill="white"/>
<path d="M194.04 34.5784C193.459 34.5784 193.174 34.8606 193.174 35.4373V43.8545C193.174 44.8484 192.667 45.3514 191.666 45.3514H186.895C185.894 45.3514 185.387 44.8484 185.387 43.8545V15.0079C185.387 13.7318 186.029 13.0938 187.315 13.0938H201.11C203.323 13.0938 205.313 13.7195 207.081 14.9711L207.674 15.3882C209.454 16.652 210.344 18.3698 210.344 20.5416V26.1122C210.344 28.2717 209.577 30.1367 208.057 31.7072L207.501 32.2717C205.98 33.8422 204.126 34.6275 201.975 34.6275H201.938L194.04 34.5907V34.5784ZM201.666 23.9649C201.666 22.7993 201.11 22.1122 200.01 21.879L194.794 20.8484C194.682 20.8238 194.583 20.8115 194.497 20.8115C194.138 20.8115 193.965 21.0324 193.965 21.4864V21.5232L194.077 27.56C194.089 28.1244 194.287 28.4066 194.67 28.4066C194.769 28.4066 194.892 28.3821 195.028 28.3453L199.985 26.9833C201.098 26.6766 201.654 25.9649 201.654 24.8361V23.9772L201.666 23.9649Z" fill="white"/>
<path d="M239.601 43.2899C239.688 43.5721 239.737 43.8175 239.737 44.0383C239.737 44.8113 239.206 45.1917 238.143 45.1917H231.134C230.466 45.1917 229.96 44.9095 229.626 44.3328L227.87 41.3144L219.181 40.2224L217.425 44.0874C217.092 44.8113 216.461 45.1794 215.559 45.1794H209.737C208.81 45.1794 208.34 44.8359 208.34 44.1733C208.34 43.9034 208.414 43.5966 208.55 43.2163L219.317 13.9034C219.601 13.1304 220.207 12.75 221.121 12.75H228.971C229.898 12.75 230.479 13.1426 230.726 13.9402L239.601 43.2776V43.2899ZM224.459 34.2101L222.419 27.8052C222.296 27.4126 222.048 27.2285 221.665 27.2285C221.245 27.2285 220.973 27.4494 220.837 27.8911L218.896 33.977C218.859 34.112 218.834 34.2347 218.834 34.3328C218.834 34.75 219.106 34.9831 219.638 35.0322L223.037 35.3758C223.161 35.388 223.284 35.4003 223.396 35.4003C224.125 35.4003 224.484 35.1304 224.484 34.6028C224.484 34.4801 224.471 34.3574 224.446 34.2224L224.459 34.2101Z" fill="white"/>
<path d="M239.539 45.3516C238.588 45.3516 238.105 44.8731 238.105 43.9283V14.3823C238.105 13.3026 238.649 12.7627 239.737 12.7627H243.866C244.546 12.7627 245.102 13.0449 245.559 13.6093L252.716 22.4559L253.186 13.867C253.236 12.9467 253.73 12.4805 254.645 12.4805H257.5C258.452 12.4805 258.934 12.959 258.934 13.9038V43.4866C258.934 44.4191 258.662 44.8854 258.106 44.8854H254.694C253.829 44.8854 253.211 44.5541 252.815 43.8792L246.264 32.64L245.077 44.0019C244.978 44.8976 244.471 45.3516 243.557 45.3516H239.552H239.539Z" fill="white"/>
<path d="M274.535 43.9652C274.498 44.8855 274.003 45.3517 273.076 45.3517H267.885C266.933 45.3517 266.451 44.8732 266.451 43.9284V24.9714C266.451 24.4192 266.179 24.1493 265.623 24.1493H262.668C261.716 24.1493 261.234 23.6707 261.234 22.726V14.0757C261.234 13.1309 261.716 12.6523 262.668 12.6523H280.036C280.987 12.6523 281.47 13.1309 281.47 14.0757V23.4008C281.47 23.953 281 24.2229 280.073 24.2229H280.036L276.34 24.1861H276.315C275.808 24.1861 275.536 24.4438 275.511 24.9714L274.535 43.9775V43.9652Z" fill="white"/>
<path d="M308.74 48.6023C308.789 48.7127 308.826 48.8354 308.826 48.9581C308.826 49.5102 308.554 49.7802 307.998 49.7802H302.263C301.978 49.7802 301.756 49.6575 301.595 49.4243L291.644 34.455L290.89 43.682C290.804 44.7372 290.248 45.2648 289.209 45.2648H285.612C284.524 45.2648 283.98 44.725 283.98 43.6452V14.4673C283.98 13.3875 284.524 12.8477 285.612 12.8477H298.122C300.211 12.8477 301.966 13.4857 303.375 14.774C304.821 16.0992 305.538 17.7924 305.538 19.8538V25.8906C305.538 27.952 304.809 29.7311 303.338 31.228L300.853 33.7556L308.74 48.6023ZM296.688 24.5777C296.688 23.6452 296.193 23.0562 295.192 22.8108L293.412 22.3691C293.301 22.3446 293.165 22.3323 292.992 22.3323C292.497 22.3323 292.225 22.6145 292.201 23.1912L292.003 28.4918V28.5532C292.003 29.0931 292.262 29.3507 292.794 29.3507C293.041 29.3507 293.251 29.2526 293.424 29.0685L295.649 26.7004C296.354 25.952 296.7 25.2403 296.7 24.5777H296.688Z" fill="white"/>
<path d="M316.278 45.3745L315.746 33.1168L307.983 16.2825C307.736 15.7549 307.625 15.3377 307.625 14.9941C307.625 14.3438 308.058 14.0125 308.935 14.0125H314.943C315.87 14.0125 316.562 14.4052 317.019 15.1782L320.097 20.3806L325.351 11.8776C325.512 11.6076 325.746 11.4727 326.055 11.4727H331.433C331.989 11.4727 332.261 11.7426 332.261 12.2947C332.261 12.4052 332.248 12.5033 332.224 12.6138L324.523 31.5585L323.311 45.6199C323.25 46.4665 322.755 46.8837 321.853 46.8837H317.934C316.871 46.8837 316.315 46.3806 316.278 45.3745Z" fill="white"/>
<path d="M329.827 41.9035V46.5416H328.777V45.9771V41.9035H327.887V41.0078H330.717V41.9035H329.815H329.827Z" fill="white"/>
<path d="M331.26 45.9894V41.0078H332.644L333.139 43.6949C333.176 43.9035 333.225 44.2103 333.25 44.4189H333.287C333.312 44.2103 333.349 43.9035 333.386 43.6949L333.88 41.0078H335.265V41.5722V45.9771V46.5416H334.338V45.9771V43.4618C334.338 43.2409 334.338 42.9465 334.362 42.7379H334.338C334.301 42.9465 334.264 43.2409 334.214 43.4495L333.633 46.5416H332.854L332.273 43.4495C332.236 43.2409 332.187 42.9465 332.162 42.7379H332.125C332.125 42.9465 332.15 43.2532 332.15 43.4618V46.5416H331.223V45.9771L331.26 45.9894Z" fill="white"/>
</svg>
