<svg xmlns="http://www.w3.org/2000/svg" fill="none" width="64" height="64" viewBox="0 0 64 64">
    <path d="m13.067 14.333-11.2-4.08c-1.32-.48-2.4.2-2.4 1.52v43.2c0 1.32 1.08 2.787 2.4 3.28l11.2 4.08c1.32.48 2.4-.2 2.4-1.52v-43.2c0-1.32-1.08-2.786-2.4-3.28M55.613 32.907c-.533-.88-.186-2.32.814-3.36 4.24-4.427 7.04-10.294 7.04-15.814 0-8.84-7.16-13.386-16-10.173-.174.067-.36.133-.534.2L31.467 9.387v29.6c0 1.32 1.08 2.013 2.4 1.52l11.2-4.08c1.32-.48 2.4.2 2.4 1.52V51.56l12.12-4.413c1.786-.654 2.946-2.947 2.146-4.254l-6.106-10z"/>
    <style>
        path { fill: #000; }
        @media (prefers-color-scheme: dark) {
            path { fill: #FFF; }
        }
    </style>
</svg>
