<svg xmlns="http://www.w3.org/2000/svg" width="550" height="104.55" viewBox="0 0 550 104.55">
<defs>
<style>.white{fill:#FFFFFF;}.orange{fill:#F05A00;}</style>
</defs>
<path class="white" d="M0,54.55H6.25A6.25,6.25,0,0,1,12.5,60.8V98.3a6.25,6.25,0,0,1-6.25,6.25h0A6.25,6.25,0,0,1,0,98.3V54.55A0,0,0,0,1,0,54.55Z"></path>
<path class="white" d="M117.5,54.55h6.25A6.25,6.25,0,0,1,130,60.8V98.3a6.25,6.25,0,0,1-6.25,6.25h0a6.25,6.25,0,0,1-6.25-6.25V54.55A0,0,0,0,1,117.5,54.55Z"></path>
<path class="white" d="M175,54.55h6.25a6.25,6.25,0,0,1,6.25,6.25V98.3a6.25,6.25,0,0,1-6.25,6.25h0A6.25,6.25,0,0,1,175,98.3V54.55a0,0,0,0,1,0,0Z"></path>
<path class="white" d="M42.5,79.55v5a5,5,0,0,0,5,5h6.17a15,15,0,1,1-.57-20.6l3.09-3.09a5,5,0,0,0-.9-7.78,25,25,0,1,0,2.2,41.48h0a5,5,0,0,0,5,5h0a5,5,0,0,0,5-5v-15a5,5,0,0,0-5-5h-20Z"></path>
<rect class="white" x="347.5" y="54.55" width="5" height="50"></rect>
<rect class="white" x="412.5" y="54.55" width="5" height="50"></rect>
<polygon class="white" points="465 54.55 447.5 54.55 447.5 54.55 442.5 54.55 442.5 54.55 425 54.55 425 59.55 442.5 59.55 442.5 104.55 447.5 104.55 447.5 59.55 465 59.55 465 54.55"></polygon>
<path class="white" d="M497.2,104.55h5.3l-17.5-50h-5l-17.5,50h5.3l7-20H490.2Zm-20.66-25,6-17,6,17H476.55Z"></path>
<polygon class="white" points="550 99.55 515 99.55 515 54.55 510 54.55 510 104.55 510 104.55 550 104.55 550 99.55"></polygon>
<path class="white" d="M312.5,54.55h-15v50h15A25,25,0,0,0,312.5,54.55Zm0,45h-10v-40h10A20,20,0,0,1,312.5,99.55Z"></path>
<path class="white" d="M382.5,79.55v5h15a15,15,0,0,1-30,0h0v-10h0a15,15,0,1,1,30,0h5a20,20,0,1,0-40,0h0v10h0a20,20,0,0,0,35,13.22v6.78h5v-25h-20Z"></path>
<path class="white" d="M167.5,54.55h-35V62a5,5,0,0,0,5,5h8.75v32.5a5,5,0,0,0,5,5h2.5a5,5,0,0,0,5-5V67h8.75a5,5,0,0,0,5-5v-2.5A5,5,0,0,0,167.5,54.55Z"></path>
<path class="white" d="M107.5,54.55H100V79.38S84,56.48,83.54,56A5,5,0,0,0,80,54.55H72.5v45a5,5,0,0,0,5,5H80a5,5,0,0,0,5-5V79.82l16.47,23.27a5,5,0,0,0,3.53,1.46h2.5a5,5,0,0,0,5-5v-40A5,5,0,0,0,107.5,54.55Z"></path>
<path class="white" d="M282.5,54.55H275V79.38S259,56.48,258.54,56A5,5,0,0,0,255,54.55h-7.5v45a5,5,0,0,0,5,5H255a5,5,0,0,0,5-5V79.82l16.47,23.27a5,5,0,0,0,3.53,1.46h2.5a5,5,0,0,0,5-5v-40A5,5,0,0,0,282.5,54.55Z"></path>
<g>
<path class="white" d="M233.4,14.13C224.33,23.2,219.27,34,219.27,42.43c8.47,0,19.23-5.07,28.29-14.13S261.69,8.47,261.69,0C253.22,0,242.46,5.07,233.4,14.13Z"></path>
<path class="white" d="M234.67,55.3c7.46-7.92,11.93-16.94,12.74-24.56A60,60,0,0,1,234.63,40,31.42,31.42,0,0,1,234.67,55.3Z"></path>
<path class="white" d="M231,14.28c-7.69.82-16.81,5.36-24.78,13a31.81,31.81,0,0,1,15.45-.08A59.91,59.91,0,0,1,231,14.28Z"></path>
</g>
<path class="orange" d="M242.5,79.55a25,25,0,0,0-15.38-23.08A7,7,0,0,0,217.5,63v1.59a15,15,0,0,1,15,15.36c-0.21,9-8.43,15.57-17.38,14.5A20,20,0,0,1,197.5,74.55q0-.4,0-0.79a20,20,0,0,1,5-12.27l15-17.29L199.84,61.86A25,25,0,1,0,242.5,79.55Z"></path>
</svg>