<svg id="Layer_1" data-name="Layer 1" xmlns="http://www.w3.org/2000/svg" viewBox="0 0 111 60"><defs><style>.cls-1{fill:#fff;fill-rule:evenodd;}</style></defs><title>Cloud</title><path class="cls-1" d="M95.93,35.47a7.2,7.2,0,0,0-4.51-6.32,4,4,0,0,0,.76-2.31c0-2.82-3.18-5.14-7.32-5.55,0,0,0,0,0-.07,0-1.91-1.72-3.55-4.18-4.28a1.76,1.76,0,0,0,.05-.41,2.13,2.13,0,0,0-1.16-1.79,2.77,2.77,0,0,0,1.16-2.09c0-2.14-3.28-3.88-7.32-3.88A11.3,11.3,0,0,0,68.25,9.9c-1.52-2.18-4.88-3.7-8.8-3.7-4.41,0-8.12,1.92-9.28,4.55a8.59,8.59,0,0,0-2-.23c-3.21,0-5.91,1.73-6.76,4.11a6.21,6.21,0,0,0-2.06-.35,4.92,4.92,0,0,0-4.78,2.82,20.63,20.63,0,0,0-8.92-1.88C18.1,15.21,12,18.69,12,23c0,2.13,1.51,4.06,4,5.47-1.68.86-2.72,2-2.72,3.25,0,2,2.52,3.65,6.15,4.42a4,4,0,0,0-2.16,3.15c0,3,5.37,5.51,12,5.51a25.41,25.41,0,0,0,3-.18A3.62,3.62,0,0,0,35.76,48c.1,0,.2,0,.3,0a4.26,4.26,0,0,0,4,2.55,4.42,4.42,0,0,0,3.3-1.44C44.48,52.49,48.36,55,53,55a10.79,10.79,0,0,0,8.36-3.59,11.15,11.15,0,0,0,4.11.78,10.68,10.68,0,0,0,7.82-3.28,18.75,18.75,0,0,0,8.13,1.67c6.37,0,11.54-2.58,11.54-5.76a3.93,3.93,0,0,0-1.63-2.94C94.06,40.6,95.93,38.21,95.93,35.47Z"/></svg>