<svg id="Layer_1" data-name="Layer 1" xmlns="http://www.w3.org/2000/svg" viewBox="0 0 87 83"><defs><style>.cls-1,.cls-2{fill:#f8ea1e;}.cls-1{fill-rule:evenodd;}</style></defs><title>Sun</title><path class="cls-1" d="M79.35,42.31c0-1.2-9-2.37-10.18-6.42l-2.94.62,2.89-.79c-1.13-3.9,6-10.06,5.35-11.1s-8.94,2.42-12-.47l-2.24,2L62.31,24c-2.93-2.81.12-11.69-.92-12.29s-6.53,6.57-10.65,5.6l-.93,2.86.75-2.89c-3.94-1-5.74-10.19-6.94-10.19s-2.37,9-6.42,10.18l.62,2.92L37,17.34c-3.9,1.13-10.06-6-11.11-5.35s2.43,8.94-.47,12l2,2.23-2.12-2.1C22.51,27.07,13.64,24,13,25.07s6.57,6.53,5.6,10.65l2.82.92-2.86-.75c-1,3.94-10.19,5.74-10.19,6.94s9,2.37,10.18,6.42l2.93-.62-2.87.79c1.13,3.9-6,10.06-5.35,11.11s8.94-2.42,12,.47l2.24-2-2.11,2.13c2.93,2.82-.12,11.69.92,12.29S32.9,66.85,37,67.82L38,65l-.75,2.88c3.94,1,5.74,10.18,6.94,10.18s2.37-9,6.42-10.17l-.62-2.93.79,2.87c3.9-1.13,10.06,6,11.11,5.35s-2.43-8.94.47-12l-2-2.22L62.43,61c2.81-2.93,11.69.12,12.29-.92s-6.57-6.53-5.6-10.65l-2.85-.93,2.89.75C70.13,45.31,79.35,43.51,79.35,42.31ZM62.67,53.12a37.53,37.53,0,0,1-3.37,4.79l.06.06a33.64,33.64,0,0,1-4.48,3.13,37.57,37.57,0,0,1-5.32,2.46l0,.09a33.82,33.82,0,0,1-5.45.47,37.68,37.68,0,0,1-5.83-.53l0,.09a33.69,33.69,0,0,1-5-2.31A37.72,37.72,0,0,1,28.55,58l-.06.06a33.64,33.64,0,0,1-3.13-4.48,37.34,37.34,0,0,1-2.46-5.31l-.09,0a34,34,0,0,1-.47-5.45A37.45,37.45,0,0,1,22.86,37l-.09,0a33.93,33.93,0,0,1,2.31-5,37.47,37.47,0,0,1,3.37-4.79l-.06-.06A33.84,33.84,0,0,1,32.88,24a37.53,37.53,0,0,1,5.32-2.46l0-.09A34.08,34.08,0,0,1,43.62,21a37.37,37.37,0,0,1,5.83.53l0-.09a33.91,33.91,0,0,1,5,2.31,37.7,37.7,0,0,1,4.79,3.37l.06-.07a33.67,33.67,0,0,1,3.13,4.48,37.72,37.72,0,0,1,2.46,5.31l.09,0a33.81,33.81,0,0,1,.47,5.45,37.65,37.65,0,0,1-.53,5.83l.09,0A33.8,33.8,0,0,1,62.67,53.12Z"/><circle class="cls-2" cx="43.88" cy="42.57" r="20.37"/></svg>