<?xml version="1.0" encoding="UTF-8"?>
<svg width="56px" height="56px" viewBox="0 0 56 56" version="1.1" xmlns="http://www.w3.org/2000/svg" xmlns:xlink="http://www.w3.org/1999/xlink">
    <title>leaves</title>
    <g id="leaves" stroke="none" fill="none" fill-rule="evenodd">
        <path d="M53.631494,13.0163812 C54.143894,13.0163812 54.265794,13.6766122 53.802294,13.8966922 C51.265094,15.0948922 49.069394,18.3960522 47.483594,24.9984122 C45.531894,33.1168122 38.359294,36.4913122 32.894494,35.6354122 C32.528494,37.3716122 32.357694,38.9121122 32.308894,40.0614122 C32.2389723,41.2075165 31.2983995,42.1522439 30.1065222,42.2536689 L29.918094,42.2622122 C28.551894,42.2866122 27.527194,41.1862122 27.697994,39.8902122 C28.820194,30.8182122 34.699794,25.6341122 38.408094,23.2133122 L38.0177314,23.3684181 C35.8895301,24.2369754 32.0879395,26.1602849 29.039794,29.7667122 C28.185894,30.7693122 26.526994,30.3291122 26.429394,29.0575122 C25.511565,17.8006083 39.5621173,12.7749312 53.2414968,13.0077184 L53.631494,13.0163812 Z M2.22798802,24.7783122 C1.83764302,24.6071122 1.98402272,24.0447122 2.39876402,24.0202122 C14.206694,23.1155122 26.209794,26.7590122 24.892394,36.4668122 C24.770394,37.2982122 23.648194,37.7139122 23.038294,36.9070122 C20.403394,33.4346122 16.719494,31.8452122 14.962994,31.2583122 C16.987894,32.5054122 19.744694,34.7551122 21.550094,38.3741122 C22.281994,39.8413122 21.428094,41.7487122 19.744694,42.2377122 C14.962994,43.6315122 8.47350402,41.1618122 7.10730402,33.9971122 C6.05824402,28.4462122 4.35048402,25.7075122 2.22798802,24.8027122 L2.22798802,24.7783122 Z" id="Shape" fill="#000000"></path>
    </g>
</svg>