<?xml version="1.0" encoding="UTF-8"?>
<svg width="56px" height="56px" viewBox="0 0 56 56" version="1.1" xmlns="http://www.w3.org/2000/svg" xmlns:xlink="http://www.w3.org/1999/xlink">
    <title>meat</title>
    <g id="meat" stroke="none" fill="none" fill-rule="nonzero">
        <path d="M13.30913,39.3961 L14.40697,38.2712 C14.82172,38.8581 15.30965,39.3961 15.82197,39.9096 C16.52948,40.6187 17.3102,41.2545 18.1153,41.7925 L16.91982,42.9907 L16.91982,43.0151 C18.3348,44.7024 18.5544,46.9032 17.3346,48.1258 C16.04155,49.4218 13.60189,49.1039 11.89413,47.3922 C11.35741,46.8543 10.96706,46.2429 10.6987,45.6316 C10.08878,45.3626 9.47887,44.9714 8.94215,44.4334 C7.234387,42.7217 6.892835,40.2764 8.21025,38.9804 C9.43008,37.7577 11.62577,37.9778 13.30913,39.3961 Z M34.4373,13.96393 C35.3293312,14.8579956 35.7495656,16.1174226 35.7182729,17.5004238 L35.706,17.7786 C35.6084,19.0746 36.7794,20.1506 38.048,19.9305 C39.6094,19.6615 41.0732,19.9549 42.1954,20.8841 C44.7083,22.9626 44.4399,27.4376 41.6099,30.8854 C40.4145,32.3526 38.9507,33.3796 37.4625,33.9421 C35.9289762,34.5009571 34.6167676,35.6587259 34.094884,37.2041114 L34.0226,37.4388 C33.6322,38.8082 32.9247,40.0553 31.9001,41.0823 C28.0454,44.9459 21.068,44.2123 16.31069,39.444 C11.55336,34.6756 10.82146,27.6821 14.67612,23.8185 C15.7120338,22.8027462 16.955853,22.099532 18.3115897,21.7088574 L18.6528,21.6177 C20.298295,21.222785 21.6796282,20.1879073 22.5039204,18.7016893 L22.6294,18.4633 C23.1173,17.4852 23.8004,16.50705 24.6787,15.62674 C27.8259,12.4723 32.1928,11.71426 34.4373,13.96393 Z M44.2189,8.83028 C44.7556,9.36825 45.146,9.97957 45.4143,10.61535 C46.0243,10.85988 46.6342,11.27559 47.1709,11.7891 C48.8786,13.50081 49.1958,15.94611 47.9028,17.2421 L47.9028,17.2666 C46.683,18.4892 44.4873,18.2691 42.8039,16.85087 L40.3642,19.3206 C39.9739,19.2228 39.5592,19.1984 39.12,19.1984 C38.7297,19.1984 38.3393,19.2228 37.949,19.2962 L37.7294,19.2962 C37.3635,19.2962 36.9975,19.125 36.7536,18.856 C36.4852,18.5626 36.3388,18.1958 36.3632,17.8045 C36.412,17.2421 36.3632,16.6797 36.2656,16.16619 L39.1932,13.20737 C37.7782,11.52012 37.5586,9.31934 38.7785,8.09669 C40.0715,6.800681 42.5111,7.143022 44.2189,8.83028 Z" id="Shape" fill="#000000"></path>
    </g>
</svg>