<?xml version="1.0" encoding="UTF-8"?>
<svg width="56px" height="56px" viewBox="0 0 56 56" version="1.1" xmlns="http://www.w3.org/2000/svg" xmlns:xlink="http://www.w3.org/1999/xlink">
    <title>paw</title>
    <g id="paw" stroke="none" fill="none" fill-rule="nonzero">
        <path d="M43.923,40.5772 L43.9055026,40.8923052 C43.8005184,42.0733082 43.0656286,46.0825571 37.9214,44.3429 L37.6594283,44.1136539 C36.7392923,43.3497326 33.5222446,41.0216776 30.0407019,42.5203638 L29.7766623,42.6429076 L29.6009731,42.7496375 C28.8923462,43.1988113 26.4394857,44.9467676 25.1132,48.3532 L25.0200606,48.47503 C24.9590073,48.5509481 24.8689869,48.6568721 24.7531185,48.7768961 L24.557012,48.9685703 C23.4275877,50.0094934 20.7482891,51.4351179 18.1114,45.1254 L18.1358,45.1254 L17.9859327,44.7842798 C17.1775646,42.814708 13.851231,32.8068896 27.2179856,27.689815 L27.7102251,27.5084734 C28.4647764,27.2847487 41.083228,23.807549 43.923,40.5772 Z M10.67077,22.6522602 C13.47637,22.6769 16.1844,24.5598 16.7943,28.0321 C17.4042,31.5045 15.64767,35.7348 12.86646,35.1969 C10.01206,34.6344 7.35284,33.2651 6.742925,29.8172 C6.133011,26.3449 7.57241,22.628 10.67077,22.6522602 Z M49.3885,22.2863 C49.9984,25.7342 47.9491,27.9349 45.4606,29.451 C43.0454,30.8938 39.947,27.5437 39.3371,24.0714 C38.7272,20.599 40.6301,17.9092 43.2649,16.9066 C46.1681,15.83069 48.7786,18.814 49.3885,22.2863 Z M24.9203,15.36317 L24.9380931,16.202889 C24.9833562,19.9992585 24.4961,23.3493545 21.6999,24.2152 C18.6992,25.1444 15.28365,22.6991 14.03942,18.7377 C12.81959,14.7763 14.25899,10.81491 17.2598,9.88569 C20.2605,8.95648 24.7495,10.22804 24.9203,15.36317 Z M38.6545,13.65267 C39.4351,18.0787 37.459,22.1379 34.2387,22.7003 C31.0183,23.2627 27.8956,19.6192 27.0173,15.70672 C26.017,11.30517 28.2127,7.22152 31.4331,6.6591 C34.6534,6.0966802 37.8738,9.22667 38.6545,13.65267 Z" id="Shape" fill="#000000"></path>
    </g>
</svg>