<svg width="335" height="44" viewBox="0 0 335 44" fill="none" xmlns="http://www.w3.org/2000/svg">
<path d="M328.413 1.12243H327.188V0.496094H330.32V1.12243H329.095V4.35045H328.42V1.12243H328.413Z" fill="black"/>
<path d="M330.922 0.496094H331.645L332.815 2.32003L333.986 0.496094H334.709V4.35045H334.034V1.58357L332.815 3.40063H332.795L331.59 1.59734V4.35045H330.922V0.496094Z" fill="black"/>
<path d="M0.175781 0.471546H15.0553L21.0663 20.8721L27.9311 0.347656H40.201L47.0658 20.8652L53.0768 0.471546H67.7153L53.8066 43.2687H41.4197L33.949 22.1385L26.4782 43.2687H14.0913L0.175781 0.471546Z" fill="black"/>
<path d="M70.2578 0.46875H84.4694V42.963H70.2578V0.46875Z" fill="black"/>
<path d="M88.2344 0.46875H102.446V30.8218H122.428V42.963H88.2344V0.46875Z" fill="black"/>
<path d="M125.527 0.46875H141.805C158.688 0.46875 167.129 8.78314 167.129 21.3511V21.475C167.129 34.0429 158.502 42.963 141.316 42.963H125.527V0.46875ZM139.739 12.8577V30.5878H142.108C148.607 30.5878 152.794 27.9173 152.794 21.7847V21.6608C152.794 15.5283 148.601 12.8577 142.108 12.8577H139.739Z" fill="black"/>
<path d="M203.136 0.46875H184.008V42.963H198.219V31.4275H202.833C214.311 31.4275 222.146 25.9626 222.146 15.7072V15.5833C222.146 5.50694 214.435 0.46875 203.136 0.46875ZM208.114 16.6157C208.114 19.651 205.683 21.2892 202.041 21.2892H198.213V11.8184H202.103C205.869 11.8184 208.114 13.3946 208.114 16.4919V16.6157Z" fill="black"/>
<path d="M259.188 0.471546H274.067L280.078 20.8721L286.943 0.347656H299.213L306.077 20.8652L312.088 0.471546H326.727L312.818 43.2687H300.431L292.961 22.1385L285.49 43.2687H273.103L259.188 0.471546Z" fill="black"/>
<path d="M249.23 0.167969H235.143L217.227 42.9651H232.409L234.592 37.2593H249.471L251.723 42.9651H267.146L249.23 0.167969Z" fill="black"/>
<path d="M242.84 14.9293C242.895 14.7434 242.97 14.5645 243.06 14.3924C243.356 13.8418 243.831 13.6697 244.423 13.8693C244.795 13.9932 245.119 14.1997 245.408 14.4544C246.207 15.1633 246.826 15.9961 247.005 17.0629C247.164 18.0128 246.943 18.9006 246.324 19.6509C245.491 20.6557 244.182 20.6489 243.342 19.6509C242.846 19.0658 242.633 18.3707 242.585 17.6136C242.585 17.4346 242.585 17.2557 242.578 17.0767C242.599 16.3471 242.626 15.6244 242.84 14.9224V14.9293ZM237.634 16.7739C237.944 15.6933 238.598 14.8329 239.528 14.1997C239.707 14.0827 239.913 13.9863 240.113 13.9244C240.616 13.7592 241.029 13.9106 241.325 14.3442C241.6 14.7434 241.717 15.2046 241.807 15.6726C241.834 15.8309 241.862 15.9892 241.876 16.1475C241.91 16.4641 241.931 16.7807 241.958 17.1042C242.006 17.8889 241.924 18.646 241.524 19.3411C241.297 19.7403 240.994 20.0707 240.581 20.291C239.838 20.6833 238.942 20.525 238.35 19.8505C237.565 18.9626 237.297 17.9164 237.634 16.7739ZM246.833 28.7086C246.041 29.1904 245.181 29.328 244.272 29.2179C243.921 29.1766 243.576 29.094 243.232 28.9977C242.612 28.8187 242 28.8187 241.394 29.0321C240.402 29.3831 239.404 29.4657 238.398 29.1284C237.552 28.8462 236.904 28.33 236.629 27.4422C236.374 26.6162 236.56 25.8454 237.028 25.1571C237.255 24.8198 237.545 24.5101 237.848 24.2417C238.509 23.6566 239.073 22.9959 239.514 22.225C240.099 21.2064 241.001 20.697 242.192 20.6282C243.425 20.6695 244.382 21.2064 244.974 22.3214C245.325 22.9752 245.787 23.519 246.399 23.9388C247.047 24.3793 247.549 24.9506 247.838 25.6871C248.286 26.8434 247.873 28.0547 246.819 28.7017L246.833 28.7086ZM235.851 23.7461C234.887 23.34 234.329 22.5898 234.109 21.578C234.068 21.3784 234.061 21.1651 234.047 21.0412C234.054 20.1808 234.212 19.4444 234.639 18.7767C234.68 18.7148 234.722 18.6529 234.77 18.5978C235.238 18.0334 235.789 17.9577 236.381 18.3913C236.829 18.7148 237.152 19.1553 237.435 19.6233C237.799 20.229 238.137 20.8416 238.213 21.5643C238.261 21.9979 238.213 22.4246 238.047 22.8238C237.669 23.7392 236.76 24.1384 235.844 23.753L235.851 23.7461ZM249.057 23.3882C248.258 23.8906 247.329 23.753 246.799 23.0785C246.496 22.693 246.372 22.2525 246.344 21.7708C246.317 21.2339 246.441 20.7246 246.661 20.2428C246.971 19.5614 247.322 18.9075 247.859 18.3775C247.969 18.2674 248.093 18.1711 248.224 18.0885C248.727 17.7719 249.209 17.8338 249.615 18.2605C250.042 18.7079 250.262 19.2654 250.386 19.8573C250.448 20.1327 250.469 20.4148 250.489 20.58C250.503 21.8533 250.035 22.7688 249.05 23.3951L249.057 23.3882Z" fill="white"/>
</svg>
