<?xml version="1.0" encoding="UTF-8"?>
<svg width="306px" height="500px" viewBox="0 0 306 500" version="1.1" xmlns="http://www.w3.org/2000/svg" xmlns:xlink="http://www.w3.org/1999/xlink">
    <title>Frame</title>
    <defs>
        <path d="M0,0 L306,0 L306,500 L0,500 L0,0 Z" id="path-1"></path>
    </defs>
    <g id="Frame" stroke="none" fill="none" xlink:href="#path-1" fill-rule="evenodd">
        <use fill="#009DD1" xlink:href="#path-1"></use>
        <path d="M306,260.254 L306,296.254 L188.368,500 L167.583,500 L306,260.254 Z M306,322.608 L306,358.608 L224.368,500 L203.583,500 L306,322.608 Z M306,384.961 L306,420.962 L260.368,500 L239.583,500 L306,384.961 Z M306,447.315 L306,483.316 L296.368,500 L275.583,500 L306,447.315 Z M0,260.254 L138.417,500 L117.632,500 L0,296.254 L0,260.254 Z M0,322.608 L102.417,500 L81.632,500 L0,358.608 L0,322.608 Z M0,384.961 L66.417,500 L45.632,500 L0,420.962 L0,384.961 Z M0,447.315 L30.417,500 L9.632,500 L0,483.316 L0,447.315 Z M153,37.096 L30.08,250 L153,462.904 L275.92,250 L153,37.096 Z M153,99.45 L66.08,250 L153,400.55 L239.92,250 L153,99.45 Z M153,161.804 L102.08,250 L153,338.196 L203.92,250 L153,161.804 Z M153,224.158 L138.08,250 L153,275.842 L167.92,250 L153,224.158 Z M188.368,2.27373675e-13 L306,203.746 L306,239.746 L167.583,2.27373675e-13 L188.368,2.27373675e-13 Z M138.417,2.27373675e-13 L0,239.746 L0,203.746 L117.632,2.27373675e-13 L138.417,2.27373675e-13 Z M224.368,2.27373675e-13 L306,141.392 L306,177.392 L203.583,2.27373675e-13 L224.368,2.27373675e-13 Z M102.417,2.27373675e-13 L0,177.392 L0,141.392 L81.632,2.27373675e-13 L102.417,2.27373675e-13 Z M260.368,2.27373675e-13 L306,79.038 L306,115.039 L239.583,2.27373675e-13 L260.368,2.27373675e-13 Z M66.417,2.27373675e-13 L0,115.039 L0,79.038 L45.632,2.27373675e-13 L66.417,2.27373675e-13 Z M296.368,2.27373675e-13 L306,16.684 L306,52.685 L275.583,2.27373675e-13 L296.368,2.27373675e-13 Z M30.417,2.27373675e-13 L0,52.685 L0,16.684 L9.632,2.27373675e-13 L30.417,2.27373675e-13 Z M153,498.904 L9.295,250 L153,1.096 L296.705,250 L153,498.904 Z M153,436.551 L45.295,250 L153,63.449 L260.705,250 L153,436.551 Z M153,374.197 L81.295,250 L153,125.803 L224.705,250 L153,374.197 Z M153,311.843 L117.295,250 L153,188.157 L188.705,250 L153,311.843 Z" id="Shape" fill="#0098D0"></path>
    </g>
</svg>