<svg width="412" height="163" viewBox="0 0 412 163" fill="none" xmlns="http://www.w3.org/2000/svg">
<path d="M0.498476 158.896C13.6865 127.8 41.6293 109.842 85.5187 104.136C127.408 98.6884 177.85 105.182 222.366 110.903C270.196 117.057 311.51 122.348 332.215 112.463C332.837 112.16 333.565 112.478 333.868 113.044C334.17 113.667 333.908 114.423 333.285 114.725C311.93 124.912 270.279 119.562 222.056 113.375C177.681 107.655 127.407 101.192 85.8274 106.615C43.375 112.112 16.2291 129.264 3.22683 158.9L0.498803 158.868L0.498476 158.896Z" fill="black"/>
<path d="M358.654 117.693C348.153 120.946 340.226 113.231 336.861 109.957C335.665 108.79 335.276 108.392 334.601 108.356C332.971 108.253 331.317 107.727 329.725 106.78C324.756 103.572 323.602 96.33 322.369 88.6931C321.87 85.6213 321.345 82.4368 320.563 79.5305C319.51 75.721 301.025 54.4102 298.006 52.7999C294.931 51.1609 291.401 49.9384 287.983 48.7736C281.203 46.4445 274.788 44.2603 272.597 39.1437C271.178 35.4143 271.726 31.7641 274.063 29.1472C276.684 26.2806 281.001 25.1775 285.347 26.3251C285.74 26.4422 286.163 26.3346 286.475 26.0851C286.788 25.8074 286.933 25.4153 286.91 24.9931C286.402 20.318 288.275 16.4301 291.953 14.5883C295.603 12.7462 299.953 13.5562 303.349 16.6617C306.626 20.2439 307.432 25.9351 308.212 31.4572C308.6 34.3307 309.044 37.2612 309.801 39.914C309.771 40.1105 310.694 42.934 311.271 44.094C311.793 45.1689 312.374 45.9914 313.066 46.9558C313.481 47.5513 314.536 48.7449 314.924 49.2838C320.1 56.4885 329.257 67.1992 333.343 68.9907C335.666 70.0021 338.216 70.8194 340.934 71.6948C347.156 73.6799 353.573 75.7516 357.037 80.208C359.552 84.0626 359.612 88.5075 357.183 91.7983C354.754 95.0891 350.605 96.3066 346.091 95.0446C345.699 94.9275 345.276 95.0351 344.963 95.2846C344.651 95.5341 344.478 95.954 344.529 96.3484C344.754 98.8263 344.419 100.988 343.556 102.638C342.577 104.539 340.925 106.376 339.053 107.676C338.486 108.064 338.364 108.85 338.752 109.417C339.001 109.757 339.364 109.93 339.758 109.935C340.011 109.938 340.265 109.856 340.492 109.718C342.732 108.169 344.613 106.053 345.793 103.789C346.656 102.111 347.102 100.063 347.128 97.8132C352.013 98.6295 356.561 96.9666 359.276 93.2853C362.334 89.1298 362.286 83.56 359.191 78.7985C359.191 78.7985 359.164 78.7419 359.136 78.7135C355.201 73.6047 348.391 71.4159 341.778 69.3138C339.144 68.4674 336.65 67.6509 334.439 66.6969C331.248 65.3097 322.42 55.3341 316.967 47.7043L316.663 47.2226C316.663 47.2226 316.221 46.5424 316.027 46.287C315.141 45.0953 314.338 43.989 313.707 42.6316C313.542 42.2921 313.378 41.8964 313.186 41.5285C312.939 40.9912 312.446 39.8041 312.341 39.2122C311.638 36.7288 311.191 34.0233 310.804 31.0935C309.972 25.2052 309.087 19.0911 305.253 14.9399C305.254 14.9118 305.226 14.8833 305.198 14.883C301.024 11.0091 295.55 10.0453 290.938 12.3544C286.836 14.4162 284.452 18.6358 284.451 23.5863C279.762 22.8567 275.217 24.2664 272.339 27.4676C269.347 30.8082 268.618 35.4126 270.392 40.0744C273.048 46.2652 280.277 48.7402 287.281 51.1281C290.615 52.2639 294.061 53.4572 296.94 54.9815C299.288 56.2464 317.414 77.0468 318.277 80.2071C319.033 82.9443 319.531 86.0723 320.03 89.0878C321.289 96.9501 322.601 105.066 328.519 108.904C330.419 109.995 332.352 110.636 334.263 110.827C334.486 110.999 334.875 111.397 335.237 111.739C338.018 114.443 344.609 120.877 353.525 120.98C355.409 121.002 357.409 120.744 359.498 120.094C378.948 114.076 396.437 78.4161 411.588 13.9548L411.725 2.1427C392.453 89.6208 372.458 113.466 358.767 117.694L358.654 117.693Z" fill="black"/>
</svg>
