<svg width="96" height="97" viewBox="0 0 96 97" fill="none" xmlns="http://www.w3.org/2000/svg">
<path d="M22.6414 83.0781C25.8998 86.9604 26.4054 92.0242 23.5965 94.8375C20.619 97.8195 15.0012 97.0881 11.0687 93.1495C9.83277 91.9117 8.93391 90.5051 8.31595 89.0984C6.91149 88.4795 5.50703 87.5793 4.27111 86.3415C0.338623 82.4029 -0.447874 76.7764 2.58576 73.7943C5.39467 70.9811 10.4507 71.4874 14.327 74.7508L16.8551 72.1626C17.8101 73.513 18.9337 74.7508 20.1134 75.9324C21.7426 77.5641 23.5403 79.027 25.3942 80.2648L22.6414 83.0218V83.0781Z" fill="#EBE362"/>
<path d="M93.9885 23.8308C91.1796 26.6441 86.1235 26.1377 82.2472 22.8743L76.6294 28.5571C75.7305 28.332 74.7755 28.2757 73.7643 28.2757C72.8654 28.2757 71.9666 28.332 71.0677 28.5008C70.8992 28.5008 70.7306 28.5008 70.5621 28.5008C69.7194 28.5008 68.8768 28.1069 68.315 27.488C67.697 26.8128 67.3599 25.9689 67.4161 25.0686C67.5285 23.7745 67.4161 22.4804 67.1914 21.2989L73.9328 14.4908C70.6745 10.6085 70.1689 5.5446 72.9778 2.73134C75.9552 -0.250713 81.5731 0.536996 85.5055 4.41929C86.7415 5.65713 87.6403 7.06376 88.2583 8.52665C89.6628 9.0893 91.0672 10.0458 92.3031 11.2274C96.2356 15.166 96.9659 20.7925 93.9885 23.7745V23.8308Z" fill="#EBE362"/>
<path d="M80.8411 32.1589C78.2569 30.0208 74.8862 29.3457 71.2908 29.9646C68.3695 30.471 65.673 27.9953 65.8977 25.0132C66.1224 21.5811 65.1674 18.4302 62.9764 16.2359C57.808 11.0595 47.7521 12.8037 40.5051 20.0619C38.4826 22.0874 36.9097 24.338 35.7861 26.5887C33.9322 30.3022 30.6177 32.8904 26.629 33.8469C23.2021 34.6908 20.0561 36.3788 17.4719 38.9107C8.59576 47.8006 10.2811 63.8925 21.2359 74.8642C32.1907 85.8359 48.2577 87.5239 57.1339 78.634C59.4934 76.2708 61.1225 73.4013 62.0214 70.2505C63.0888 66.4244 66.2348 63.5549 69.9425 62.2045C73.3694 60.9104 76.7401 58.5473 79.4928 55.1714C86.0095 47.238 86.6275 36.9415 80.8411 32.1589Z" fill="#EBE362"/>
</svg>
