<svg xmlns="http://www.w3.org/2000/svg" fill="none" viewBox="0 0 128 128">
    <path d="M66.557 14.526c.415-1.399.985-2.746 1.659-4.042 2.23-4.146 5.807-5.441 10.265-3.939 2.8.933 5.236 2.488 7.414 4.405 6.014 5.338 10.68 11.609 12.027 19.641 1.193 7.152-.467 13.837-5.133 19.486-6.272 7.566-16.122 7.514-22.447 0-3.733-4.405-5.34-9.64-5.703-15.34 0-1.347 0-2.694-.052-4.042.155-5.493.363-10.935 1.97-16.22v.051M27.363 28.415C29.696 20.279 34.621 13.8 41.62 9.033a17.993 17.993 0 0 1 4.407-2.073c3.785-1.244 6.895-.104 9.125 3.161 2.073 3.006 2.955 6.478 3.628 10.002.208 1.192.415 2.384.519 3.576.26 2.384.415 4.768.622 7.203.363 5.908-.26 11.609-3.266 16.843-1.71 3.006-3.992 5.493-7.103 7.152-5.599 2.954-12.338 1.762-16.797-3.317-5.91-6.685-7.932-14.562-5.392-23.165Zm69.263 89.862c-5.961 3.627-12.442 4.663-19.285 3.834-2.644-.31-5.237-.933-7.829-1.658-4.666-1.347-9.28-1.347-13.842.26-7.466 2.642-14.983 3.264-22.552.724-6.377-2.124-11.25-6.011-13.324-12.696-1.918-6.219-.518-12.023 3.007-17.205 1.71-2.54 3.888-4.872 6.17-6.893 4.976-4.405 9.228-9.38 12.546-15.184 4.406-7.67 11.198-11.505 20.167-12.023 9.28.31 16.486 4.353 20.945 12.748 2.644 4.924 6.117 9.018 10.731 12.179 4.873 3.316 8.658 7.618 10.836 13.163 3.37 8.707.259 17.827-7.673 22.699l.103.052Zm-82.69-37.365C6.678 77.854 2.479 72.206.82 64.588c-.312-1.503-.363-3.11-.467-4.043.052-6.478 1.244-12.023 4.458-17.05.311-.466.623-.932.985-1.347 3.526-4.25 7.673-4.82 12.132-1.555 3.37 2.436 5.806 5.753 7.932 9.277 2.748 4.56 5.288 9.172 5.858 14.614.363 3.265 0 6.478-1.244 9.484-2.851 6.892-9.695 9.898-16.59 6.996l.052-.052Zm99.436-2.695c-6.014 3.783-13.013 2.747-17.005-2.332-2.281-2.902-3.215-6.219-3.422-9.846-.207-4.043.726-7.878 2.385-11.505 2.333-5.13 4.977-10.054 9.02-14.044.83-.83 1.764-1.555 2.748-2.177 3.785-2.384 7.415-1.917 10.473 1.296 3.214 3.368 4.873 7.566 5.807 12.023.467 2.073.622 4.197.777 5.441.104 9.588-3.422 16.48-10.835 21.196l.052-.052"/>
    <style>
        path { fill: #000; }
        @media (prefers-color-scheme: dark) {
            path { fill: #FFF; }
        }
    </style>
</svg>
