<svg width="74" height="63" viewBox="0 0 74 63" fill="none" xmlns="http://www.w3.org/2000/svg">
<path fill-rule="evenodd" clip-rule="evenodd" d="M69.7142 8.08677C68.7418 6.39879 67.4942 5.00438 66.0631 3.86683C62.9807 1.44495 60.5405 0.0505371 53.6785 0.637659C49.8989 1.09635 47.5504 2.74763 46.2294 5.27959C45.3487 6.96757 44.9267 9.02249 44.8717 11.371C41.9911 9.90317 39.8261 7.71981 39.2022 4.01361C36.0465 3.83013 33.0191 5.11446 31.3862 8.30694C32.487 15.0038 36.0281 20.0677 40.2114 24.7097C40.2848 31.7368 37.6611 37.0392 33.2393 41.2041C29.6065 43.6443 25.3315 43.8278 20.2859 41.3692C16.4513 39.3143 12.8001 37.8648 9.38748 38.1584C6.21335 38.4336 3.55296 39.4244 1.99342 42.1582C0.782477 44.2865 0.232038 47.3138 0.562294 51.4053C0.158648 52.8548 0.0302174 54.1942 0.048565 55.4602C0.0852601 56.8179 0.323778 58.0839 0.635686 59.3131C4.25015 60.1938 8.91044 58.7994 10.2315 57.4784C9.46087 54.6162 10.7452 51.9191 12.8368 49.6623C15.9376 50.3045 16.7448 51.2769 17.6439 52.7814C19.9373 56.6527 24.5976 58.8545 30.0835 61.0745C32.1935 61.6983 34.2851 62.0469 36.3951 62.1203C41.881 62.3038 47.3669 60.6525 52.8712 57.405C56.6691 54.6529 59.7882 51.3136 62.8706 47.9377C67.4575 42.9104 68.5217 39.9381 70.6683 35.3329C72.1728 31.2781 73.1269 27.315 73.3654 23.4437C73.6957 18.1045 72.87 13.4993 69.7509 8.10511L69.7142 8.08677ZM34.7988 8.03172C33.8998 8.19685 32.8724 8.45372 32.01 8.2152C32.8173 6.89417 34.12 5.70158 35.5878 5.11446C36.5052 4.74751 37.6244 4.54569 38.6151 4.52734C38.3583 6.17862 36.7253 7.70147 34.8172 8.05007L34.7988 8.03172ZM7.36925 58.3591C6.10327 58.7627 4.7272 59.0012 3.40617 59.0379C2.89244 59.0379 1.99341 58.9645 1.46133 58.8912C2.26863 57.7903 4.26851 57.46 5.49779 57.2582C6.59864 57.0747 8.37836 56.9647 9.49756 57.4417C8.94713 57.7536 7.84629 58.1756 7.36925 58.3224V58.3591Z" fill="#A3CF62"/>
</svg>
