<?xml version="1.0" encoding="UTF-8"?>
<svg width="64px" height="64px" viewBox="0 0 64 64" version="1.1" xmlns="http://www.w3.org/2000/svg" xmlns:xlink="http://www.w3.org/1999/xlink">
    <title>instagram</title>
    <defs>
        <radialGradient cx="26.5626266%" cy="107.702106%" fx="26.5626266%" fy="107.702106%" r="99.107386%" id="radialGradient-1">
            <stop stop-color="#FFDD55" offset="0%"></stop>
            <stop stop-color="#FFDD55" offset="10%"></stop>
            <stop stop-color="#FF543E" offset="50%"></stop>
            <stop stop-color="#C837AB" offset="100%"></stop>
        </radialGradient>
        <radialGradient cx="-16.7505274%" cy="7.20383154%" fx="-16.7505274%" fy="7.20383154%" r="44.3014085%" id="radialGradient-2">
            <stop stop-color="#3771C8" offset="0%"></stop>
            <stop stop-color="#3771C8" offset="12.8%"></stop>
            <stop stop-color="#6600FF" stop-opacity="0" offset="100%"></stop>
        </radialGradient>
    </defs>
    <g id="instagram" stroke="none" fill="none">
        <circle id="Oval" fill="url(#radialGradient-1)" fill-rule="evenodd" cx="32" cy="32" r="30"></circle>
        <circle id="Oval-Copy" fill="url(#radialGradient-2)" fill-rule="evenodd" cx="32" cy="32" r="30"></circle>
        <path d="M32.0015,14 C27.113,14 26.4995,14.021375 24.5795,14.10875 C22.66325,14.1965 21.35525,14.499875 20.21075,14.945 C19.026875,15.40475 18.022625,16.01975 17.022125,17.020625 C16.020875,18.021125 15.405875,19.025375 14.944625,20.208875 C14.498375,21.35375 14.194625,22.662125 14.108375,24.577625 C14.0225,26.497625 14,27.1115 14,32 C14,36.8885 14.02175,37.500125 14.10875,39.420125 C14.196875,41.336375 14.50025,42.644375 14.945,43.788875 C15.405125,44.97275 16.020125,45.977 17.021,46.9775 C18.021125,47.97875 19.025375,48.59525 20.2085,49.055 C21.35375,49.500125 22.662125,49.8035 24.578,49.89125 C26.498,49.978625 27.111125,50 31.99925,50 C36.888125,50 37.49975,49.978625 39.41975,49.89125 C41.336,49.8035 42.6455,49.500125 43.79075,49.055 C44.97425,48.59525 45.977,47.97875 46.977125,46.9775 C47.978375,45.977 48.593375,44.97275 49.054625,43.78925 C49.497125,42.644375 49.800875,41.336 49.890875,39.4205 C49.977125,37.5005 49.999625,36.8885 49.999625,32 C49.999625,27.1115 49.977125,26.498 49.890875,24.578 C49.800875,22.66175 49.497125,21.35375 49.054625,20.20925 C48.593375,19.025375 47.978375,18.021125 46.977125,17.020625 C45.975875,16.019375 44.974625,15.404375 43.789625,14.945 C42.642125,14.499875 41.333375,14.1965 39.417125,14.10875 C37.497125,14.021375 36.885875,14 31.995875,14 L32.0015,14 Z M30.38675,17.24375 C30.866,17.243 31.40075,17.24375 32.0015,17.24375 C36.8075,17.24375 37.377125,17.261 39.275,17.34725 C41.03,17.4275 41.9825,17.72075 42.617,17.967125 C43.457,18.293375 44.055875,18.683375 44.6855,19.313375 C45.3155,19.943375 45.7055,20.543375 46.0325,21.383375 C46.278875,22.017125 46.5725,22.969625 46.652375,24.724625 C46.738625,26.622125 46.757375,27.192125 46.757375,31.995875 C46.757375,36.799625 46.738625,37.369625 46.652375,39.267125 C46.572125,41.022125 46.278875,41.974625 46.0325,42.608375 C45.70625,43.448375 45.3155,44.0465 44.6855,44.676125 C44.0555,45.306125 43.457375,45.696125 42.617,46.022375 C41.98325,46.269875 41.03,46.562375 39.275,46.642625 C37.3775,46.728875 36.8075,46.747625 32.0015,46.747625 C27.195125,46.747625 26.6255,46.728875 24.728,46.642625 C22.973,46.561625 22.0205,46.268375 21.385625,46.022 C20.545625,45.69575 19.945625,45.30575 19.315625,44.67575 C18.685625,44.04575 18.295625,43.44725 17.968625,42.606875 C17.72225,41.973125 17.428625,41.020625 17.34875,39.265625 C17.2625,37.368125 17.24525,36.798125 17.24525,31.991375 C17.24525,27.184625 17.2625,26.617625 17.34875,24.720125 C17.429,22.965125 17.72225,22.012625 17.968625,21.378125 C18.294875,20.538125 18.685625,19.938125 19.315625,19.308125 C19.945625,18.678125 20.545625,18.288125 21.385625,17.961125 C22.020125,17.713625 22.973,17.421125 24.728,17.3405 C26.3885,17.2655 27.032,17.243 30.38675,17.23925 L30.38675,17.24375 Z M41.60975,20.2325 C40.41725,20.2325 39.44975,21.198875 39.44975,22.39175 C39.44975,23.58425 40.41725,24.55175 41.60975,24.55175 C42.80225,24.55175 43.76975,23.58425 43.76975,22.39175 C43.76975,21.19925 42.80225,20.23175 41.60975,20.23175 L41.60975,20.2325 Z M32.0015,22.75625 C26.896625,22.75625 22.75775,26.895125 22.75775,32 C22.75775,37.104875 26.896625,41.241875 32.0015,41.241875 C37.106375,41.241875 41.24375,37.104875 41.24375,32 C41.24375,26.895125 37.106,22.75625 32.001125,22.75625 L32.0015,22.75625 Z M32.0015,26 C35.315,26 38.0015,28.686125 38.0015,32 C38.0015,35.3135 35.315,38 32.0015,38 C28.687625,38 26.0015,35.3135 26.0015,32 C26.0015,28.686125 28.687625,26 32.0015,26 Z" id="Shape" fill="#FFFFFF" fill-rule="nonzero"></path>
    </g>
</svg>